HIERARCHY
ROOT Hips
{
	OFFSET 0.000000 0.000000 0.000000
	CHANNELS 6 Xposition Yposition Zposition Xrotation Yrotation Zrotation
	JOINT LeftUpLeg_virtual
	{
		OFFSET 0.000000 0.000000 0.000000
		CHANNELS 3 Xrotation Yrotation Zrotation
		JOINT LeftUpLeg
		{
			OFFSET 13.026900 -6.336304 -1.092800
			CHANNELS 3 Xrotation Yrotation Zrotation
			JOINT LeftLeg
			{
				OFFSET 0.524474 -46.096886 9.782700
				CHANNELS 3 Xrotation Yrotation Zrotation
				JOINT LeftFoot
				{
					OFFSET -0.524474 -53.427422 -12.948200
					CHANNELS 3 Xrotation Yrotation Zrotation
					JOINT LeftToeBase
					{
						OFFSET 0.192200 -14.009700 16.364100
						CHANNELS 3 Xrotation Yrotation Zrotation
						JOINT LeftToe_End
						{
							OFFSET -1.784700 -0.561700 9.474800
							CHANNELS 3 Xrotation Yrotation Zrotation
							End Site
							{
								OFFSET 0 0 0
							}
						}
					}
				}
			}
		}
	}
	JOINT RightUpLeg_virtual
	{
		OFFSET 0.000000 0.000000 0.000000
		CHANNELS 3 Xrotation Yrotation Zrotation
		JOINT RightUpLeg
		{
			OFFSET -12.883000 -6.336304 -1.092800
			CHANNELS 3 Xrotation Yrotation Zrotation
			JOINT RightLeg
			{
				OFFSET -0.524587 -46.096825 9.782800
				CHANNELS 3 Xrotation Yrotation Zrotation
				JOINT RightFoot
				{
					OFFSET 0.524587 -53.427383 -12.948300
					CHANNELS 3 Xrotation Yrotation Zrotation
					JOINT RightToeBase
					{
						OFFSET -0.192200 -14.009700 16.364100
						CHANNELS 3 Xrotation Yrotation Zrotation
						JOINT RightToe_End
						{
							OFFSET 1.784700 -0.561700 9.474800
							CHANNELS 3 Xrotation Yrotation Zrotation
							End Site
							{
								OFFSET 0 0 0
							}
						}
					}
				}
			}
		}
	}
	JOINT Spine_virtual
	{
		OFFSET 0.000000 0.000000 0.000000
		CHANNELS 3 Xrotation Yrotation Zrotation
		JOINT Spine
		{
			OFFSET 0.072000 7.257294 -0.789700
			CHANNELS 3 Xrotation Yrotation Zrotation
			JOINT Spine1
			{
				OFFSET 0.000000 12.508769 -0.658067
				CHANNELS 3 Xrotation Yrotation Zrotation
				JOINT Spine1_split
				{
					OFFSET 0.000000 12.508769 -0.658067
					CHANNELS 3 Xrotation Yrotation Zrotation
					JOINT Spine2
					{
						OFFSET 0.000000 12.508769 -0.658067
						CHANNELS 3 Xrotation Yrotation Zrotation
						JOINT Neck_virtual
						{
							OFFSET 0.000000 0.000000 0.000000
							CHANNELS 3 Xrotation Yrotation Zrotation
							JOINT Neck
							{
								OFFSET 0.000000 14.033295 7.520400
								CHANNELS 3 Xrotation Yrotation Zrotation
								JOINT Head
								{
									OFFSET 0.000000 8.198502 5.703100
									CHANNELS 3 Xrotation Yrotation Zrotation
									JOINT HeadTop_End
									{
										OFFSET 0.000000 17.760803 13.332701
										CHANNELS 3 Xrotation Yrotation Zrotation
										End Site
										{
											OFFSET 0 0 0
										}
									}
								}
							}
						}
						JOINT LeftShoulder_virtual
						{
							OFFSET 0.000000 0.000000 0.000000
							CHANNELS 3 Xrotation Yrotation Zrotation
							JOINT LeftShoulder
							{
								OFFSET 6.292450 5.785301 -0.669000
								CHANNELS 3 Xrotation Yrotation Zrotation
								JOINT LeftShoulder_split
								{
									OFFSET 6.292450 5.785301 -0.669000
									CHANNELS 3 Xrotation Yrotation Zrotation
									JOINT LeftArm
									{
										OFFSET 13.907140 -6.093903 1.965100
										CHANNELS 3 Xrotation Yrotation Zrotation
										JOINT LeftForeArm
										{
											OFFSET 34.140198 0.000000 0.000000
											CHANNELS 3 Xrotation Yrotation Zrotation
											JOINT LeftHand
											{
												OFFSET 40.960209 0.000000 0.000000
												CHANNELS 3 Xrotation Yrotation Zrotation
												End Site
												{
													OFFSET 0 0 0
												}
											}
										}
									}
								}
							}
						}
						JOINT RightShoulder_virtual
						{
							OFFSET 0.000000 0.000000 0.000000
							CHANNELS 3 Xrotation Yrotation Zrotation
							JOINT RightShoulder
							{
								OFFSET -6.292450 5.785301 -0.669000
								CHANNELS 3 Xrotation Yrotation Zrotation
								JOINT RightShoulder_split
								{
									OFFSET -6.292450 5.785301 -0.669000
									CHANNELS 3 Xrotation Yrotation Zrotation
									JOINT RightArm
									{
										OFFSET -13.907140 -6.093903 1.965100
										CHANNELS 3 Xrotation Yrotation Zrotation
										JOINT RightForeArm
										{
											OFFSET -34.140198 0.000000 0.000000
											CHANNELS 3 Xrotation Yrotation Zrotation
											JOINT RightHand
											{
												OFFSET -40.960209 0.000000 0.000000
												CHANNELS 3 Xrotation Yrotation Zrotation
												End Site
												{
													OFFSET 0 0 0
												}
											}
										}
									}
								}
							}
						}
					}
				}
			}
		}
	}
}
MOTION
Frames: 5
Frame Time: 0.03333333
-137.224182 50.011497 32.969124 0.000000 0.000000 0.000000 12.276703 -1.458508 -39.515100 -129.219092 1.933882 9.743767 39.154094 23.728429 2.915628 40.715926 -16.380395 24.991587 0.511578 4.582111 2.786066 0.000000 0.000000 0.000000 15.155508 4.338888 -40.875090 -96.244284 -8.436937 -19.525431 101.238526 8.529057 3.095728 11.084333 -3.510261 10.186515 -17.601546 -2.038156 -4.020622 0.000000 0.000000 0.000000 12.639972 8.434099 -44.410010 19.733062 -2.603288 -10.167703 5.278558 -2.762486 -2.275518 0.395368 0.779647 0.181791 0.000000 0.000000 0.000000 6.329776 -0.377337 -3.188517 0.176839 -2.118264 4.309149 -31.489774 -9.873984 4.763834 0.000000 0.000000 0.000000 5.805366 -1.875704 -3.258720 -0.509066 -12.734650 -11.705927 -2.370032 -1.461817 0.036536 -61.907837 42.914925 -5.342835 -1.218519 -65.814624 -2.817956 0.000000 0.000000 0.000000 8.141315 -0.629275 -3.140677 -10.014277 4.162494 2.098215 15.553681 2.460232 -0.513868 -28.453275 -12.634654 -10.610642 -24.630415 46.734197 14.760705 0.000000 0.000000 0.000000 
-136.446442 52.601063 29.635763 0.000000 0.000000 0.000000 13.270620 -1.757263 -41.245450 -128.308737 2.801206 9.757619 46.488887 28.231089 -1.025997 34.333209 -11.834654 28.007472 3.392203 4.163805 0.485829 0.000000 0.000000 0.000000 15.906225 4.823130 -43.039778 -90.435004 -11.553049 -17.729358 94.948843 8.734199 2.028593 12.349783 -2.375021 14.542741 -14.195204 -0.899953 -6.058845 0.000000 0.000000 0.000000 12.752984 9.207226 -46.255025 19.881052 -3.842842 -11.123933 5.497742 -3.289512 -1.902945 0.349060 0.633651 0.156639 0.000000 0.000000 0.000000 5.878030 -0.708788 -2.986141 1.380200 -2.439403 5.308614 -31.152151 -7.014068 5.006587 0.000000 0.000000 0.000000 5.809026 -2.362429 -2.949823 0.004503 -12.642346 -10.173818 -2.203139 -1.580662 0.033141 -65.384513 41.487952 -5.354906 0.850352 -62.940617 -1.295639 0.000000 0.000000 0.000000 7.894467 -1.030071 -2.733210 -10.370999 1.947357 0.510602 16.145722 2.648706 -0.579964 -27.584738 -15.833659 -12.851831 -24.610855 46.897394 14.806033 0.000000 0.000000 0.000000 
-135.960815 55.805336 26.120226 0.000000 0.000000 0.000000 14.907655 -2.033932 -43.142309 -128.388022 2.570999 10.925595 60.275183 30.655388 -7.964545 27.720364 -8.295439 29.966010 4.494726 3.581485 -2.106055 0.000000 0.000000 0.000000 18.170687 6.796395 -46.054613 -84.212968 -14.491983 -15.359067 86.807688 8.962048 1.340401 15.194591 -1.595307 18.725237 -8.716263 -0.109583 -8.389847 0.000000 0.000000 0.000000 13.846602 10.101423 -48.554821 20.316454 -5.176538 -11.407890 5.783605 -3.799044 -1.225147 0.280651 0.583284 0.093819 0.000000 0.000000 0.000000 5.444573 -0.998121 -2.482426 2.746727 -2.491423 5.814336 -30.418674 -3.334036 4.740904 0.000000 0.000000 0.000000 5.675983 -2.770258 -2.345088 0.439481 -12.968567 -8.557249 -1.696825 -1.530251 -0.168183 -69.901208 39.808159 -4.413825 1.750100 -58.510904 -0.717453 0.000000 0.000000 0.000000 7.608615 -1.373934 -1.961830 -10.747539 -0.679232 -0.487945 16.633321 2.598750 -0.999795 -27.685176 -20.066239 -13.015181 -24.566456 47.224703 14.675216 0.000000 0.000000 0.000000 
-135.688446 59.908798 22.339970 0.000000 0.000000 0.000000 17.108821 -1.414840 -45.229321 -127.722516 1.971132 12.829225 76.308280 29.630733 -15.493738 21.324947 -6.672878 30.561190 0.387614 2.884039 -3.672346 0.000000 0.000000 0.000000 21.955580 9.731238 -49.821278 -78.333759 -16.644992 -12.582428 75.977829 8.924234 1.108010 18.939358 -1.050662 21.880854 -0.914080 0.200878 -10.989603 0.000000 0.000000 0.000000 15.547198 10.736712 -51.086629 21.036725 -6.536038 -10.903383 6.058870 -4.223424 -0.384110 0.231411 0.676271 0.059277 0.000000 0.000000 0.000000 5.063610 -1.235436 -1.798283 4.295704 -2.214813 5.511470 -29.067557 1.106496 4.064974 0.000000 0.000000 0.000000 5.410837 -3.078315 -1.583457 0.732312 -13.689324 -7.228219 -0.618965 -1.239812 -0.279941 -74.892778 37.783896 -2.923270 2.023956 -53.477895 -0.619221 0.000000 0.000000 0.000000 7.267167 -1.620597 -0.990889 -11.079255 -3.542728 -0.956456 17.126418 2.340597 -1.500475 -28.113931 -25.117268 -11.379846 -24.374433 47.675079 14.287040 0.000000 0.000000 0.000000 
-135.448044 64.730583 18.120121 0.000000 0.000000 0.000000 19.600592 0.195418 -47.291776 -124.854738 1.448112 14.671960 89.480772 26.272113 -20.617165 13.747255 -7.182456 29.506745 -8.904790 2.176494 -3.765867 0.000000 0.000000 0.000000 26.507976 12.750439 -53.749207 -74.041914 -17.791408 -10.018748 62.804204 8.528833 1.024891 23.109983 -0.359514 24.115373 6.547477 0.192918 -14.201658 0.000000 0.000000 0.000000 17.741210 10.860902 -53.593213 22.011719 -7.828313 -9.692715 6.225419 -4.509430 0.462407 0.203374 0.813552 0.077032 0.000000 0.000000 0.000000 4.771857 -1.444635 -1.101376 5.871609 -1.579841 4.257068 -27.058044 5.854087 3.006239 0.000000 0.000000 0.000000 5.110183 -3.343545 -0.835338 0.834750 -14.869711 -6.487506 0.666293 -0.461507 -0.461530 -79.837637 34.647887 -1.684920 2.509870 -47.668706 -0.408238 0.000000 0.000000 0.000000 6.867774 -1.797448 -0.013041 -11.321829 -6.382660 -1.018021 17.845205 2.153740 -2.112815 -28.163723 -30.428264 -8.397361 -23.882059 47.904071 13.488163 0.000000 0.000000 0.000000 
